{"asset": {"version": "2.0", "generator": "GridMind asset builder"}, "scene": 0, "scenes": [{"nodes": [0, 1, 2, 3, 4, 5, 6, 7, 8, 9, 10, 11, 12]}], "nodes": [{"mesh": 0, "name": "cabinet"}, {"mesh": 1, "name": "module_0_0"}, {"mesh": 2, "name": "module_0_1"}, {"mesh": 3, "name": "module_0_2"}, {"mesh": 4, "name": "module_0_3"}, {"mesh": 5, "name": "module_1_0"}, {"mesh": 6, "name": "module_1_1"}, {"mesh": 7, "name": "module_1_2"}, {"mesh": 8, "name": "module_1_3"}, {"mesh": 9, "name": "module_2_0"}, {"mesh": 10, "name": "module_2_1"}, {"mesh": 11, "name": "module_2_2"}, {"mesh": 12, "name": "module_2_3"}], "meshes": [{"name": "cabinet", "primitives": [{"attributes": {"POSITION": 0}, "indices": 13, "material": 0, "mode": 4}]}, {"name": "module_0_0", "primitives": [{"attributes": {"POSITION": 1}, "indices": 14, "material": 1, "mode": 4}]}, {"name": "module_0_1", "primitives": [{"attributes": {"POSITION": 2}, "indices": 15, "material": 2, "mode": 4}]}, {"name": "module_0_2", "primitives": [{"attributes": {"POSITION": 3}, "indices": 16, "material": 3, "mode": 4}]}, {"name": "module_0_3", "primitives": [{"attributes": {"POSITION": 4}, "indices": 17, "material": 4, "mode": 4}]}, {"name": "module_1_0", "primitives": [{"attributes": {"POSITION": 5}, "indices": 18, "material": 5, "mode": 4}]}, {"name": "module_1_1", "primitives": [{"attributes": {"POSITION": 6}, "indices": 19, "material": 6, "mode": 4}]}, {"name": "module_1_2", "primitives": [{"attributes": {"POSITION": 7}, "indices": 20, "material": 7, "mode": 4}]}, {"name": "module_1_3", "primitives": [{"attributes": {"POSITION": 8}, "indices": 21, "material": 8, "mode": 4}]}, {"name": "module_2_0", "primitives": [{"attributes": {"POSITION": 9}, "indices": 22, "material": 9, "mode": 4}]}, {"name": "module_2_1", "primitives": [{"attributes": {"POSITION": 10}, "indices": 23, "material": 10, "mode": 4}]}, {"name": "module_2_2", "primitives": [{"attributes": {"POSITION": 11}, "indices": 24, "material": 11, "mode": 4}]}, {"name": "module_2_3", "primitives": [{"attributes": {"POSITION": 12}, "indices": 25, "material": 12, "mode": 4}]}], "materials": [{"name": "cabinet", "pbrMetallicRoughness": {"baseColorFactor": [0.18, 0.22, 0.26, 1.0], "metallicFactor": 0.3, "roughnessFactor": 0.7}}, {"name": "module", "pbrMetallicRoughness": {"baseColorFactor": [0.12, 0.55, 0.42, 1.0], "metallicFactor": 0.5, "roughnessFactor": 0.4}}, {"name": "module", "pbrMetallicRoughness": {"baseColorFactor": [0.12, 0.55, 0.42, 1.0], "metallicFactor": 0.5, "roughnessFactor": 0.4}}, {"name": "module", "pbrMetallicRoughness": {"baseColorFactor": [0.12, 0.55, 0.42, 1.0], "metallicFactor": 0.5, "roughnessFactor": 0.4}}, {"name": "module", "pbrMetallicRoughness": {"baseColorFactor": [0.12, 0.55, 0.42, 1.0], "metallicFactor": 0.5, "roughnessFactor": 0.4}}, {"name": "module", "pbrMetallicRoughness": {"baseColorFactor": [0.12, 0.55, 0.42, 1.0], "metallicFactor": 0.5, "roughnessFactor": 0.4}}, {"name": "module", "pbrMetallicRoughness": {"baseColorFactor": [0.12, 0.55, 0.42, 1.0], "metallicFactor": 0.5, "roughnessFactor": 0.4}}, {"name": "module", "pbrMetallicRoughness": {"baseColorFactor": [0.12, 0.55, 0.42, 1.0], "metallicFactor": 0.5, "roughnessFactor": 0.4}}, {"name": "module", "pbrMetallicRoughness": {"baseColorFactor": [0.12, 0.55, 0.42, 1.0], "metallicFactor": 0.5, "roughnessFactor": 0.4}}, {"name": "module", "pbrMetallicRoughness": {"baseColorFactor": [0.12, 0.55, 0.42, 1.0], "metallicFactor": 0.5, "roughnessFactor": 0.4}}, {"name": "module", "pbrMetallicRoughness": {"baseColorFactor": [0.12, 0.55, 0.42, 1.0], "metallicFactor": 0.5, "roughnessFactor": 0.4}}, {"name": "module", "pbrMetallicRoughness": {"baseColorFactor": [0.12, 0.55, 0.42, 1.0], "metallicFactor": 0.5, "roughnessFactor": 0.4}}, {"name": "module", "pbrMetallicRoughness": {"baseColorFactor": [0.12, 0.55, 0.42, 1.0], "metallicFactor": 0.5, "roughnessFactor": 0.4}}], "accessors": [{"bufferView": 0, "componentType": 5126, "count": 36, "type": "VEC3", "min": [-0.6, 0.0, -0.4], "max": [0.6, 1.1, 0.4]}, {"bufferView": 2, "componentType": 5126, "count": 36, "type": "VEC3", "min": [-0.5, 0.13, -0.3], "max": [-0.28, 0.37, 0.3]}, {"bufferView": 4, "componentType": 5126, "count": 36, "type": "VEC3", "min": [-0.24, 0.13, -0.3], "max": [-0.020000000000000004, 0.37, 0.3]}, {"bufferView": 6, "componentType": 5126, "count": 36, "type": "VEC3", "min": [0.020000000000000004, 0.13, -0.3], "max": [0.24, 0.37, 0.3]}, {"bufferView": 8, "componentType": 5126, "count": 36, "type": "VEC3", "min": [0.28, 0.13, -0.3], "max": [0.5, 0.37, 0.3]}, {"bufferView": 10, "componentType": 5126, "count": 36, "type": "VEC3", "min": [-0.5, 0.43000000000000005, -0.3], "max": [-0.28, 0.67, 0.3]}, {"bufferView": 12, "componentType": 5126, "count": 36, "type": "VEC3", "min": [-0.24, 0.43000000000000005, -0.3], "max": [-0.020000000000000004, 0.67, 0.3]}, {"bufferView": 14, "componentType": 5126, "count": 36, "type": "VEC3", "min": [0.020000000000000004, 0.43000000000000005, -0.3], "max": [0.24, 0.67, 0.3]}, {"bufferView": 16, "componentType": 5126, "count": 36, "type": "VEC3", "min": [0.28, 0.43000000000000005, -0.3], "max": [0.5, 0.67, 0.3]}, {"bufferView": 18, "componentType": 5126, "count": 36, "type": "VEC3", "min": [-0.5, 0.73, -0.3], "max": [-0.28, 0.97, 0.3]}, {"bufferView": 20, "componentType": 5126, "count": 36, "type": "VEC3", "min": [-0.24, 0.73, -0.3], "max": [-0.020000000000000004, 0.97, 0.3]}, {"bufferView": 22, "componentType": 5126, "count": 36, "type": "VEC3", "min": [0.020000000000000004, 0.73, -0.3], "max": [0.24, 0.97, 0.3]}, {"bufferView": 24, "componentType": 5126, "count": 36, "type": "VEC3", "min": [0.28, 0.73, -0.3], "max": [0.5, 0.97, 0.3]}, {"bufferView": 1, "componentType": 5123, "count": 36, "type": "SCALAR"}, {"bufferView": 3, "componentType": 5123, "count": 36, "type": "SCALAR"}, {"bufferView": 5, "componentType": 5123, "count": 36, "type": "SCALAR"}, {"bufferView": 7, "componentType": 5123, "count": 36, "type": "SCALAR"}, {"bufferView": 9, "componentType": 5123, "count": 36, "type": "SCALAR"}, {"bufferView": 11, "componentType": 5123, "count": 36, "type": "SCALAR"}, {"bufferView": 13, "componentType": 5123, "count": 36, "type": "SCALAR"}, {"bufferView": 15, "componentType": 5123, "count": 36, "type": "SCALAR"}, {"bufferView": 17, "componentType": 5123, "count": 36, "type": "SCALAR"}, {"bufferView": 19, "componentType": 5123, "count": 36, "type": "SCALAR"}, {"bufferView": 21, "componentType": 5123, "count": 36, "type": "SCALAR"}, {"bufferView": 23, "componentType": 5123, "count": 36, "type": "SCALAR"}, {"bufferView": 25, "componentType": 5123, "count": 36, "type": "SCALAR"}], "bufferViews": [{"buffer": 0, "byteOffset": 0, "byteLength": 432}, {"buffer": 0, "byteOffset": 432, "byteLength": 72}, {"buffer": 0, "byteOffset": 504, "byteLength": 432}, {"buffer": 0, "byteOffset": 936, "byteLength": 72}, {"buffer": 0, "byteOffset": 1008, "byteLength": 432}, {"buffer": 0, "byteOffset": 1440, "byteLength": 72}, {"buffer": 0, "byteOffset": 1512, "byteLength": 432}, {"buffer": 0, "byteOffset": 1944, "byteLength": 72}, {"buffer": 0, "byteOffset": 2016, "byteLength": 432}, {"buffer": 0, "byteOffset": 2448, "byteLength": 72}, {"buffer": 0, "byteOffset": 2520, "byteLength": 432}, {"buffer": 0, "byteOffset": 2952, "byteLength": 72}, {"buffer": 0, "byteOffset": 3024, "byteLength": 432}, {"buffer": 0, "byteOffset": 3456, "byteLength": 72}, {"buffer": 0, "byteOffset": 3528, "byteLength": 432}, {"buffer": 0, "byteOffset": 3960, "byteLength": 72}, {"buffer": 0, "byteOffset": 4032, "byteLength": 432}, {"buffer": 0, "byteOffset": 4464, "byteLength": 72}, {"buffer": 0, "byteOffset": 4536, "byteLength": 432}, {"buffer": 0, "byteOffset": 4968, "byteLength": 72}, {"buffer": 0, "byteOffset": 5040, "byteLength": 432}, {"buffer": 0, "byteOffset": 5472, "byteLength": 72}, {"buffer": 0, "byteOffset": 5544, "byteLength": 432}, {"buffer": 0, "byteOffset": 5976, "byteLength": 72}, {"buffer": 0, "byteOffset": 6048, "byteLength": 432}, {"buffer": 0, "byteOffset": 6480, "byteLength": 72}], "buffers": [{"byteLength": 6552, "uri": "data:application/octet-stream;base64,"}]}