{"asset": {"version": "2.0", "generator": "GridMind asset builder"}, "scene": 0, "scenes": [{"nodes": [0, 1]}], "nodes": [{"mesh": 0, "name": "body"}, {"mesh": 1, "name": "panel"}], "meshes": [{"name": "body", "primitives": [{"attributes": {"POSITION": 0}, "indices": 2, "material": 0, "mode": 4}]}, {"name": "panel", "primitives": [{"attributes": {"POSITION": 1}, "indices": 3, "material": 1, "mode": 4}]}], "materials": [{"name": "charger_body", "pbrMetallicRoughness": {"baseColorFactor": [0.24, 0.26, 0.3, 1.0], "metallicFactor": 0.3, "roughnessFactor": 0.7}}, {"name": "status_panel", "pbrMetallicRoughness": {"baseColorFactor": [0.1, 0.75, 0.6, 1.0], "metallicFactor": 0.2, "roughnessFactor": 0.3}}], "accessors": [{"bufferView": 0, "componentType": 5126, "count": 36, "type": "VEC3", "min": [-0.175, 0.0, -0.125], "max": [0.175, 0.9, 0.125]}, {"bufferView": 2, "componentType": 5126, "count": 36, "type": "VEC3", "min": [-0.12, 0.63, 0.125], "max": [0.12, 0.8099999999999999, 0.15500000000000003]}, {"bufferView": 1, "componentType": 5123, "count": 36, "type": "SCALAR"}, {"bufferView": 3, "componentType": 5123, "count": 36, "type": "SCALAR"}], "bufferViews": [{"buffer": 0, "byteOffset": 0, "byteLength": 432}, {"buffer": 0, "byteOffset": 432, "byteLength": 72}, {"buffer": 0, "byteOffset": 504, "byteLength": 432}, {"buffer": 0, "byteOffset": 936, "byteLength": 72}], "buffers": [{"byteLength": 1008, "uri": "data:application/octet-stream;base64,"}]}