{"asset": {"version": "2.0", "generator": "GridMind asset builder"}, "scene": 0, "scenes": [{"nodes": [0, 1, 2]}], "nodes": [{"mesh": 0, "name": "main"}, {"mesh": 1, "name": "wing"}, {"mesh": 2, "name": "roof_sign"}], "meshes": [{"name": "main", "primitives": [{"attributes": {"POSITION": 0}, "indices": 3, "material": 0, "mode": 4}]}, {"name": "wing", "primitives": [{"attributes": {"POSITION": 1}, "indices": 4, "material": 1, "mode": 4}]}, {"name": "roof_sign", "primitives": [{"attributes": {"POSITION": 2}, "indices": 5, "material": 2, "mode": 4}]}], "materials": [{"name": "walls", "pbrMetallicRoughness": {"baseColorFactor": [0.92, 0.93, 0.95, 1.0], "metallicFactor": 0.1, "roughnessFactor": 0.7}}, {"name": "walls", "pbrMetallicRoughness": {"baseColorFactor": [0.92, 0.93, 0.95, 1.0], "metallicFactor": 0.1, "roughnessFactor": 0.7}}, {"name": "emergency", "pbrMetallicRoughness": {"baseColorFactor": [0.85, 0.15, 0.15, 1.0], "metallicFactor": 0.1, "roughnessFactor": 0.7}}], "accessors": [{"bufferView": 0, "componentType": 5126, "count": 36, "type": "VEC3", "min": [-0.9, 0.0, -0.6], "max": [0.9, 1.0, 0.6]}, {"bufferView": 2, "componentType": 5126, "count": 36, "type": "VEC3", "min": [0.8499999999999999, 0.0, -0.4], "max": [1.45, 0.7, 0.4]}, {"bufferView": 4, "componentType": 5126, "count": 36, "type": "VEC3", "min": [-0.2, 1.0, -0.2], "max": [0.2, 1.12, 0.2]}, {"bufferView": 1, "componentType": 5123, "count": 36, "type": "SCALAR"}, {"bufferView": 3, "componentType": 5123, "count": 36, "type": "SCALAR"}, {"bufferView": 5, "componentType": 5123, "count": 36, "type": "SCALAR"}], "bufferViews": [{"buffer": 0, "byteOffset": 0, "byteLength": 432}, {"buffer": 0, "byteOffset": 432, "byteLength": 72}, {"buffer": 0, "byteOffset": 504, "byteLength": 432}, {"buffer": 0, "byteOffset": 936, "byteLength": 72}, {"buffer": 0, "byteOffset": 1008, "byteLength": 432}, {"buffer": 0, "byteOffset": 1440, "byteLength": 72}], "buffers": [{"byteLength": 1512, "uri": "data:application/octet-stream;base64,"}]}