{"asset": {"version": "2.0", "generator": "GridMind asset builder"}, "scene": 0, "scenes": [{"nodes": [0, 1, 2, 3, 4, 5, 6, 7, 8, 9, 10, 11, 12, 13, 14, 15, 16, 17]}], "nodes": [{"mesh": 0, "name": "panel_0_0"}, {"mesh": 1, "name": "panel_0_1"}, {"mesh": 2, "name": "panel_0_2"}, {"mesh": 3, "name": "panel_0_3"}, {"mesh": 4, "name": "panel_1_0"}, {"mesh": 5, "name": "panel_1_1"}, {"mesh": 6, "name": "panel_1_2"}, {"mesh": 7, "name": "panel_1_3"}, {"mesh": 8, "name": "panel_2_0"}, {"mesh": 9, "name": "panel_2_1"}, {"mesh": 10, "name": "panel_2_2"}, {"mesh": 11, "name": "panel_2_3"}, {"mesh": 12, "name": "leg_0_0"}, {"mesh": 13, "name": "leg_0_3"}, {"mesh": 14, "name": "leg_1_0"}, {"mesh": 15, "name": "leg_1_3"}, {"mesh": 16, "name": "leg_2_0"}, {"mesh": 17, "name": "leg_2_3"}], "meshes": [{"name": "panel_0_0", "primitives": [{"attributes": {"POSITION": 0}, "indices": 18, "material": 0, "mode": 4}]}, {"name": "panel_0_1", "primitives": [{"attributes": {"POSITION": 1}, "indices": 19, "material": 1, "mode": 4}]}, {"name": "panel_0_2", "primitives": [{"attributes": {"POSITION": 2}, "indices": 20, "material": 2, "mode": 4}]}, {"name": "panel_0_3", "primitives": [{"attributes": {"POSITION": 3}, "indices": 21, "material": 3, "mode": 4}]}, {"name": "panel_1_0", "primitives": [{"attributes": {"POSITION": 4}, "indices": 22, "material": 4, "mode": 4}]}, {"name": "panel_1_1", "primitives": [{"attributes": {"POSITION": 5}, "indices": 23, "material": 5, "mode": 4}]}, {"name": "panel_1_2", "primitives": [{"attributes": {"POSITION": 6}, "indices": 24, "material": 6, "mode": 4}]}, {"name": "panel_1_3", "primitives": [{"attributes": {"POSITION": 7}, "indices": 25, "material": 7, "mode": 4}]}, {"name": "panel_2_0", "primitives": [{"attributes": {"POSITION": 8}, "indices": 26, "material": 8, "mode": 4}]}, {"name": "panel_2_1", "primitives": [{"attributes": {"POSITION": 9}, "indices": 27, "material": 9, "mode": 4}]}, {"name": "panel_2_2", "primitives": [{"attributes": {"POSITION": 10}, "indices": 28, "material": 10, "mode": 4}]}, {"name": "panel_2_3", "primitives": [{"attributes": {"POSITION": 11}, "indices": 29, "material": 11, "mode": 4}]}, {"name": "leg_0_0", "primitives": [{"attributes": {"POSITION": 12}, "indices": 30, "material": 12, "mode": 4}]}, {"name": "leg_0_3", "primitives": [{"attributes": {"POSITION": 13}, "indices": 31, "material": 13, "mode": 4}]}, {"name": "leg_1_0", "primitives": [{"attributes": {"POSITION": 14}, "indices": 32, "material": 14, "mode": 4}]}, {"name": "leg_1_3", "primitives": [{"attributes": {"POSITION": 15}, "indices": 33, "material": 15, "mode": 4}]}, {"name": "leg_2_0", "primitives": [{"attributes": {"POSITION": 16}, "indices": 34, "material": 16, "mode": 4}]}, {"name": "leg_2_3", "primitives": [{"attributes": {"POSITION": 17}, "indices": 35, "material": 17, "mode": 4}]}], "materials": [{"name": "panel_dark", "pbrMetallicRoughness": {"baseColorFactor": [0.05, 0.08, 0.14, 1.0], "metallicFactor": 0.4, "roughnessFactor": 0.35}}, {"name": "panel_dark", "pbrMetallicRoughness": {"baseColorFactor": [0.05, 0.08, 0.14, 1.0], "metallicFactor": 0.4, "roughnessFactor": 0.35}}, {"name": "panel_dark", "pbrMetallicRoughness": {"baseColorFactor": [0.05, 0.08, 0.14, 1.0], "metallicFactor": 0.4, "roughnessFactor": 0.35}}, {"name": "panel_dark", "pbrMetallicRoughness": {"baseColorFactor": [0.05, 0.08, 0.14, 1.0], "metallicFactor": 0.4, "roughnessFactor": 0.35}}, {"name": "panel_dark", "pbrMetallicRoughness": {"baseColorFactor": [0.05, 0.08, 0.14, 1.0], "metallicFactor": 0.4, "roughnessFactor": 0.35}}, {"name": "panel_dark", "pbrMetallicRoughness": {"baseColorFactor": [0.05, 0.08, 0.14, 1.0], "metallicFactor": 0.4, "roughnessFactor": 0.35}}, {"name": "panel_dark", "pbrMetallicRoughness": {"baseColorFactor": [0.05, 0.08, 0.14, 1.0], "metallicFactor": 0.4, "roughnessFactor": 0.35}}, {"name": "panel_dark", "pbrMetallicRoughness": {"baseColorFactor": [0.05, 0.08, 0.14, 1.0], "metallicFactor": 0.4, "roughnessFactor": 0.35}}, {"name": "panel_dark", "pbrMetallicRoughness": {"baseColorFactor": [0.05, 0.08, 0.14, 1.0], "metallicFactor": 0.4, "roughnessFactor": 0.35}}, {"name": "panel_dark", "pbrMetallicRoughness": {"baseColorFactor": [0.05, 0.08, 0.14, 1.0], "metallicFactor": 0.4, "roughnessFactor": 0.35}}, {"name": "panel_dark", "pbrMetallicRoughness": {"baseColorFactor": [0.05, 0.08, 0.14, 1.0], "metallicFactor": 0.4, "roughnessFactor": 0.35}}, {"name": "panel_dark", "pbrMetallicRoughness": {"baseColorFactor": [0.05, 0.08, 0.14, 1.0], "metallicFactor": 0.4, "roughnessFactor": 0.35}}, {"name": "frame_grey", "pbrMetallicRoughness": {"baseColorFactor": [0.65, 0.68, 0.72, 1.0], "metallicFactor": 0.1, "roughnessFactor": 0.7}}, {"name": "frame_grey", "pbrMetallicRoughness": {"baseColorFactor": [0.65, 0.68, 0.72, 1.0], "metallicFactor": 0.1, "roughnessFactor": 0.7}}, {"name": "frame_grey", "pbrMetallicRoughness": {"baseColorFactor": [0.65, 0.68, 0.72, 1.0], "metallicFactor": 0.1, "roughnessFactor": 0.7}}, {"name": "frame_grey", "pbrMetallicRoughness": {"baseColorFactor": [0.65, 0.68, 0.72, 1.0], "metallicFactor": 0.1, "roughnessFactor": 0.7}}, {"name": "frame_grey", "pbrMetallicRoughness": {"baseColorFactor": [0.65, 0.68, 0.72, 1.0], "metallicFactor": 0.1, "roughnessFactor": 0.7}}, {"name": "frame_grey", "pbrMetallicRoughness": {"baseColorFactor": [0.65, 0.68, 0.72, 1.0], "metallicFactor": 0.1, "roughnessFactor": 0.7}}], "accessors": [{"bufferView": 0, "componentType": 5126, "count": 36, "type": "VEC3", "min": [-2.2249999999999996, 0.3409369221296335, -1.75], "max": [-1.2249999999999999, 0.35906307787036645, -0.8500000000000001]}, {"bufferView": 2, "componentType": 5126, "count": 36, "type": "VEC3", "min": [-1.075, 0.3409369221296335, -1.75], "max": [-0.07499999999999996, 0.35906307787036645, -0.8500000000000001]}, {"bufferView": 4, "componentType": 5126, "count": 36, "type": "VEC3", "min": [0.07499999999999996, 0.3409369221296335, -1.75], "max": [1.075, 0.35906307787036645, -0.8500000000000001]}, {"bufferView": 6, "componentType": 5126, "count": 36, "type": "VEC3", "min": [1.2249999999999999, 0.3409369221296335, -1.75], "max": [2.2249999999999996, 0.35906307787036645, -0.8500000000000001]}, {"bufferView": 8, "componentType": 5126, "count": 36, "type": "VEC3", "min": [-2.2249999999999996, 0.4009369221296335, -0.16999999999999998], "max": [-1.2249999999999999, 0.41906307787036645, 0.73]}, {"bufferView": 10, "componentType": 5126, "count": 36, "type": "VEC3", "min": [-1.075, 0.4009369221296335, -0.16999999999999998], "max": [-0.07499999999999996, 0.41906307787036645, 0.73]}, {"bufferView": 12, "componentType": 5126, "count": 36, "type": "VEC3", "min": [0.07499999999999996, 0.4009369221296335, -0.16999999999999998], "max": [1.075, 0.41906307787036645, 0.73]}, {"bufferView": 14, "componentType": 5126, "count": 36, "type": "VEC3", "min": [1.2249999999999999, 0.4009369221296335, -0.16999999999999998], "max": [2.2249999999999996, 0.41906307787036645, 0.73]}, {"bufferView": 16, "componentType": 5126, "count": 36, "type": "VEC3", "min": [-2.2249999999999996, 0.4609369221296335, 1.4100000000000001], "max": [-1.2249999999999999, 0.47906307787036645, 2.31]}, {"bufferView": 18, "componentType": 5126, "count": 36, "type": "VEC3", "min": [-1.075, 0.4609369221296335, 1.4100000000000001], "max": [-0.07499999999999996, 0.47906307787036645, 2.31]}, {"bufferView": 20, "componentType": 5126, "count": 36, "type": "VEC3", "min": [0.07499999999999996, 0.4609369221296335, 1.4100000000000001], "max": [1.075, 0.47906307787036645, 2.31]}, {"bufferView": 22, "componentType": 5126, "count": 36, "type": "VEC3", "min": [1.2249999999999999, 0.4609369221296335, 1.4100000000000001], "max": [2.2249999999999996, 0.47906307787036645, 2.31]}, {"bufferView": 24, "componentType": 5126, "count": 36, "type": "VEC3", "min": [-1.765, -0.05000000000000002, -1.34], "max": [-1.6849999999999998, 0.35, -1.26]}, {"bufferView": 26, "componentType": 5126, "count": 36, "type": "VEC3", "min": [1.6849999999999998, -0.05000000000000002, -1.34], "max": [1.765, 0.35, -1.26]}, {"bufferView": 28, "componentType": 5126, "count": 36, "type": "VEC3", "min": [-1.765, -0.05000000000000002, 0.24000000000000002], "max": [-1.6849999999999998, 0.35, 0.32]}, {"bufferView": 30, "componentType": 5126, "count": 36, "type": "VEC3", "min": [1.6849999999999998, -0.05000000000000002, 0.24000000000000002], "max": [1.765, 0.35, 0.32]}, {"bufferView": 32, "componentType": 5126, "count": 36, "type": "VEC3", "min": [-1.765, -0.05000000000000002, 1.82], "max": [-1.6849999999999998, 0.35, 1.9000000000000001]}, {"bufferView": 34, "componentType": 5126, "count": 36, "type": "VEC3", "min": [1.6849999999999998, -0.05000000000000002, 1.82], "max": [1.765, 0.35, 1.9000000000000001]}, {"bufferView": 1, "componentType": 5123, "count": 36, "type": "SCALAR"}, {"bufferView": 3, "componentType": 5123, "count": 36, "type": "SCALAR"}, {"bufferView": 5, "componentType": 5123, "count": 36, "type": "SCALAR"}, {"bufferView": 7, "componentType": 5123, "count": 36, "type": "SCALAR"}, {"bufferView": 9, "componentType": 5123, "count": 36, "type": "SCALAR"}, {"bufferView": 11, "componentType": 5123, "count": 36, "type": "SCALAR"}, {"bufferView": 13, "componentType": 5123, "count": 36, "type": "SCALAR"}, {"bufferView": 15, "componentType": 5123, "count": 36, "type": "SCALAR"}, {"bufferView": 17, "componentType": 5123, "count": 36, "type": "SCALAR"}, {"bufferView": 19, "componentType": 5123, "count": 36, "type": "SCALAR"}, {"bufferView": 21, "componentType": 5123, "count": 36, "type": "SCALAR"}, {"bufferView": 23, "componentType": 5123, "count": 36, "type": "SCALAR"}, {"bufferView": 25, "componentType": 5123, "count": 36, "type": "SCALAR"}, {"bufferView": 27, "componentType": 5123, "count": 36, "type": "SCALAR"}, {"bufferView": 29, "componentType": 5123, "count": 36, "type": "SCALAR"}, {"bufferView": 31, "componentType": 5123, "count": 36, "type": "SCALAR"}, {"bufferView": 33, "componentType": 5123, "count": 36, "type": "SCALAR"}, {"bufferView": 35, "componentType": 5123, "count": 36, "type": "SCALAR"}], "bufferViews": [{"buffer": 0, "byteOffset": 0, "byteLength": 432}, {"buffer": 0, "byteOffset": 432, "byteLength": 72}, {"buffer": 0, "byteOffset": 504, "byteLength": 432}, {"buffer": 0, "byteOffset": 936, "byteLength": 72}, {"buffer": 0, "byteOffset": 1008, "byteLength": 432}, {"buffer": 0, "byteOffset": 1440, "byteLength": 72}, {"buffer": 0, "byteOffset": 1512, "byteLength": 432}, {"buffer": 0, "byteOffset": 1944, "byteLength": 72}, {"buffer": 0, "byteOffset": 2016, "byteLength": 432}, {"buffer": 0, "byteOffset": 2448, "byteLength": 72}, {"buffer": 0, "byteOffset": 2520, "byteLength": 432}, {"buffer": 0, "byteOffset": 2952, "byteLength": 72}, {"buffer": 0, "byteOffset": 3024, "byteLength": 432}, {"buffer": 0, "byteOffset": 3456, "byteLength": 72}, {"buffer": 0, "byteOffset": 3528, "byteLength": 432}, {"buffer": 0, "byteOffset": 3960, "byteLength": 72}, {"buffer": 0, "byteOffset": 4032, "byteLength": 432}, {"buffer": 0, "byteOffset": 4464, "byteLength": 72}, {"buffer": 0, "byteOffset": 4536, "byteLength": 432}, {"buffer": 0, "byteOffset": 4968, "byteLength": 72}, {"buffer": 0, "byteOffset": 5040, "byteLength": 432}, {"buffer": 0, "byteOffset": 5472, "byteLength": 72}, {"buffer": 0, "byteOffset": 5544, "byteLength": 432}, {"buffer": 0, "byteOffset": 5976, "byteLength": 72}, {"buffer": 0, "byteOffset": 6048, "byteLength": 432}, {"buffer": 0, "byteOffset": 6480, "byteLength": 72}, {"buffer": 0, "byteOffset": 6552, "byteLength": 432}, {"buffer": 0, "byteOffset": 6984, "byteLength": 72}, {"buffer": 0, "byteOffset": 7056, "byteLength": 432}, {"buffer": 0, "byteOffset": 7488, "byteLength": 72}, {"buffer": 0, "byteOffset": 7560, "byteLength": 432}, {"buffer": 0, "byteOffset": 7992, "byteLength": 72}, {"buffer": 0, "byteOffset": 8064, "byteLength": 432}, {"buffer": 0, "byteOffset": 8496, "byteLength": 72}, {"buffer": 0, "byteOffset": 8568, "byteLength": 432}, {"buffer": 0, "byteOffset": 9000, "byteLength": 72}], "buffers": [{"byteLength": 9072, "uri": "data:application/octet-stream;base64,"}]}