{"asset": {"version": "2.0", "generator": "GridMind asset builder"}, "scene": 0, "scenes": [{"nodes": [0, 1]}], "nodes": [{"mesh": 0, "name": "tower"}, {"mesh": 1, "name": "hub"}], "meshes": [{"name": "tower", "primitives": [{"attributes": {"POSITION": 0}, "indices": 2, "material": 0, "mode": 4}]}, {"name": "hub", "primitives": [{"attributes": {"POSITION": 1}, "indices": 3, "material": 1, "mode": 4}]}], "materials": [{"name": "tower", "pbrMetallicRoughness": {"baseColorFactor": [0.9, 0.9, 0.92, 1.0], "metallicFactor": 0.2, "roughnessFactor": 0.7}}, {"name": "hub", "pbrMetallicRoughness": {"baseColorFactor": [0.75, 0.78, 0.8, 1.0], "metallicFactor": 0.4, "roughnessFactor": 0.7}}], "accessors": [{"bufferView": 0, "componentType": 5126, "count": 26, "type": "VEC3", "min": [-0.12, 0.0, -0.12], "max": [0.12, 3.0, 0.12]}, {"bufferView": 2, "componentType": 5126, "count": 26, "type": "VEC3", "min": [-0.28, 2.85, -0.28], "max": [0.28, 3.35, 0.28]}, {"bufferView": 1, "componentType": 5123, "count": 144, "type": "SCALAR"}, {"bufferView": 3, "componentType": 5123, "count": 144, "type": "SCALAR"}], "bufferViews": [{"buffer": 0, "byteOffset": 0, "byteLength": 312}, {"buffer": 0, "byteOffset": 312, "byteLength": 288}, {"buffer": 0, "byteOffset": 600, "byteLength": 312}, {"buffer": 0, "byteOffset": 912, "byteLength": 288}], "buffers": [{"byteLength": 1200, "uri": "data:application/octet-stream;base64,"}]}